<svg width="55" height="65" viewBox="0 0 55 65" fill="none" xmlns="http://www.w3.org/2000/svg">
<path fill-rule="evenodd" clip-rule="evenodd" d="M55.0002 18V56C55.0002 58.1217 54.1573 60.1566 52.657 61.6569C51.1568 63.1571 49.1219 64 47.0002 64H31.0002V60H47.0002C48.0611 60 49.0785 59.5786 49.8286 58.8284C50.5788 58.0783 51.0002 57.0609 51.0002 56V18H43.0002C41.4089 18 39.8828 17.3679 38.7576 16.2426C37.6323 15.1174 37.0002 13.5913 37.0002 12V4H15.0002C13.9393 4 12.9219 4.42143 12.1718 5.17157C11.4216 5.92172 11.0002 6.93913 11.0002 8V45H7.00019V8C7.00019 5.87827 7.84305 3.84344 9.34334 2.34315C10.8436 0.842855 12.8785 0 15.0002 0H37.0002L55.0002 18Z" fill="black"/>
<path d="M10.0263 54.1562C9.92684 53.8106 9.78716 53.5052 9.60724 53.2401C9.42731 52.9702 9.20714 52.7429 8.94672 52.5582C8.69104 52.3688 8.39748 52.2244 8.06604 52.125C7.73934 52.0256 7.37712 51.9759 6.9794 51.9759C6.23602 51.9759 5.58261 52.1605 5.01917 52.5298C4.46046 52.8991 4.02485 53.4366 3.71235 54.142C3.39985 54.8428 3.2436 55.6998 3.2436 56.7131C3.2436 57.7263 3.39748 58.5881 3.70525 59.2983C4.01301 60.0085 4.44862 60.5507 5.01207 60.9247C5.57551 61.294 6.24076 61.4787 7.0078 61.4787C7.70383 61.4787 8.29805 61.3556 8.79047 61.1094C9.28763 60.8584 9.66642 60.5057 9.92684 60.0511C10.192 59.5966 10.3246 59.0592 10.3246 58.4389L10.9496 58.5312H7.19957V56.2159H13.2862V58.0483C13.2862 59.3267 13.0163 60.4252 12.4766 61.3438C11.9368 62.2576 11.1934 62.9631 10.2464 63.4602C9.29947 63.9527 8.21519 64.1989 6.9936 64.1989C5.62996 64.1989 4.43205 63.8982 3.39985 63.2969C2.36765 62.6908 1.56273 61.8314 0.985077 60.7188C0.41216 59.6013 0.125702 58.2756 0.125702 56.7415C0.125702 55.5625 0.296156 54.5114 0.637066 53.5881C0.98271 52.66 1.46566 51.8741 2.08593 51.2301C2.70619 50.5862 3.42826 50.0961 4.25212 49.7599C5.07599 49.4238 5.96851 49.2557 6.92968 49.2557C7.75354 49.2557 8.52059 49.3764 9.23082 49.6179C9.94104 49.8546 10.5708 50.1908 11.12 50.6264C11.674 51.062 12.1262 51.5805 12.4766 52.1818C12.8269 52.7784 13.0518 53.4366 13.1513 54.1562H10.0263Z" fill="black"/>
<path d="M20.7525 64H15.5962V49.4545H20.7951C22.2582 49.4545 23.5176 49.7457 24.5735 50.3281C25.6294 50.9058 26.4414 51.7367 27.0096 52.821C27.5825 53.9053 27.869 55.2027 27.869 56.7131C27.869 58.2282 27.5825 59.5303 27.0096 60.6193C26.4414 61.7083 25.6246 62.544 24.5593 63.1264C23.4987 63.7088 22.2298 64 20.7525 64ZM18.6715 61.3651H20.6246C21.5337 61.3651 22.2984 61.2041 22.9187 60.8821C23.5437 60.5554 24.0124 60.0511 24.3249 59.3693C24.6422 58.6828 24.8008 57.7974 24.8008 56.7131C24.8008 55.6383 24.6422 54.7599 24.3249 54.0781C24.0124 53.3963 23.546 52.8944 22.9258 52.5724C22.3055 52.2505 21.5408 52.0895 20.6317 52.0895H18.6715V61.3651Z" fill="black"/>
<path d="M31.2808 41L34.2637 22.8182H37.1046L34.1217 41H31.2808ZM23.1398 36.4901L23.6103 33.6491H37.8148L37.3443 36.4901H23.1398ZM24.8887 41L27.8717 22.8182H30.7126L27.7296 41H24.8887ZM24.1785 30.169L24.6579 27.3281H38.8624L38.383 30.169H24.1785Z" fill="black"/>
</svg>
